/* XPM */
static char *close_active_up[] = {
/* columns rows colors chars-per-pixel */
"19 19 37 1 ",
"  c #435B6E",
". c #486A86",
"X c #63839A",
"o c #69879D",
"O c #6B899D",
"+ c #6B8DA5",
"@ c #6E8EA5",
"# c #708DA1",
"$ c #708FA6",
"% c #7190A6",
"& c #7493A9",
"* c #7594A9",
"= c #7695A9",
"- c #7896AB",
"; c #7996AB",
": c #7A97AC",
"> c #7C99AD",
", c #8299A8",
"< c #809CAE",
"1 c #819DAF",
"2 c #829EAF",
"3 c #839EB0",
"4 c #859FB0",
"5 c #90A4AD",
"6 c #85A0B0",
"7 c #87A1B1",
"8 c #88A2B1",
"9 c #88A2B2",
"0 c #89A3B3",
"q c #8AA4B3",
"w c #8CA5B4",
"e c #8DA6B4",
"r c #8EA6B4",
"t c #8FA7B4",
"y c #92A9B6",
"u c #A5B7BC",
"i c #E1EAF6",
/* pixels */
"rrrrrrrrrrrrrrrrwrt",
"rrwwwrwwwwwwwwwwrrw",
"=-O           O:w7r",
"&o 5uuuuuuuuu5 O:88",
"= ,yyyyyyyyyyy@ =77",
"& yrr..ryr..rr> ><<",
": yw.ii.w.ii.w> -<<",
": yr.iii.iii.w> ><4",
"> y88.iiiii.77> :>>",
"> y>>-.iii.>>>> >::",
"< y--.iiiii.--> >::",
"< y=.iii.iii.=> >&:",
"2 y&.ii.&.ii.=> 3&=",
"8 y$%..&%$..%%> 4&&",
"> ,$@@@@@@@@@@@ 7&&",
"%< X++++++++@X <>%%",
"%>3           3:&$%",
"%%787r070000004$%@%",
"..................."
};
