/* XPM */
static char *close_active_down[] = {
/* columns rows colors chars-per-pixel */
"19 19 38 1 ",
"  c #405363",
". c #486A86",
"X c #5E819C",
"o c #6889A2",
"O c #6989A2",
"+ c #698AA3",
"@ c #6A8BA3",
"# c #6B8CA4",
"$ c #6D8DA5",
"% c #6E8DA5",
"& c #6F8EA6",
"* c #708FA6",
"= c #7190A6",
"- c #7190A7",
"; c #7291A8",
": c #7492A8",
"> c #7593A9",
", c #7695A9",
"< c #7996AB",
"1 c #7A97AC",
"2 c #7C99AD",
"3 c #809CAE",
"4 c #829EAF",
"5 c #839EB0",
"6 c #85A0B0",
"7 c #87A1B1",
"8 c #88A2B1",
"9 c #88A2B2",
"0 c #8CA5B3",
"q c #8CA5B4",
"w c #8EA6B4",
"e c #94ABB6",
"r c #99AEB8",
"t c #9CB0B9",
"y c #A1B4BB",
"u c #A5B7BC",
"i c #A9BABE",
"p c #E1EAF6",
/* pixels */
"wwwwwwwwwwwwwwwwwww",
"wwwwwwwwwwwwwwwwwww",
"qww           qqw0e",
"77 ooooooooooo i886",
"7 X;;;;;;;--;;; i88",
"7 X;-..;-;..&;- u63",
"5 X&.pp.&.pp.-& y63",
"5 X#.ppp.ppp.&& t36",
"2 X*&.ppppp.&&& r22",
"2 X;&-.ppp.##&# e<1",
"2 o:#.ppppp.@&& 0<<",
"< .o.ppp.ppp.@# 0<<",
"; X#.pp.@.pp.#@ 8,,",
"; Xoo..o@@..o@@ 3,,",
"> X+ooooooooo@@ 3::",
";; +ooooooooo  2:--",
"-;2           2----",
"&--22222222222-----",
"..................."
};
