/* XPM */
static char *max_active_up[] = {
/* columns rows colors chars-per-pixel */
"19 19 36 1 ",
"  c #435B6E",
". c #486A86",
"X c #63839A",
"o c #69879D",
"O c #6B899D",
"+ c #6B8DA5",
"@ c #6E8EA5",
"# c #708DA1",
"$ c #708FA6",
"% c #7190A6",
"& c #7492A8",
"* c #7493A9",
"= c #7593A9",
"- c #7594A9",
"; c #7695A9",
": c #7896AB",
"> c #7996AB",
", c #7A97AC",
"< c #7C99AD",
"1 c #8299A8",
"2 c #819DAF",
"3 c #829EAF",
"4 c #839EB0",
"5 c #859FB0",
"6 c #90A4AD",
"7 c #85A0B0",
"8 c #88A2B1",
"9 c #89A3B3",
"0 c #8AA4B3",
"q c #8CA5B4",
"w c #8DA6B4",
"e c #8EA6B4",
"r c #8FA7B4",
"t c #92A9B6",
"y c #A5B7BC",
"u c #E1EAF6",
/* pixels */
"eeeeeeeeeeeeeeeeeee",
"eeqqqqqqqqqqqqqqqqq",
";:O           O:eqq",
"=o 6yyyyyyyyy6 O:q4",
"; 1ttttttttttt@ &59",
"= te.........e< =55",
": te.uuuuuuu.e< =55",
": te.uuuuuuu.q< >44",
"< t9.u.....u.7< ><<",
"< t<.u.<<<.u.<< <1>",
"2 t:.u.:::.u.:< <;<",
"2 t=.u.....u.;< 2;;",
"3 t;.uuuuuuu.=< 3;;",
"3 t$.........&< 3==",
"< 1$@@@@@@@@@@@ 3==",
"$2 X+++++++++X 2<$=",
"$<2           3<=$%",
"#=3909999999993%$$$",
"..................."
};
