/* XPM */
static char *max_active_down[] = {
/* columns rows colors chars-per-pixel */
"19 19 35 1 ",
"  c #405363",
". c #486A86",
"X c #5E819C",
"o c #6889A2",
"O c #6989A2",
"+ c #6B8CA4",
"@ c #6C8DA5",
"# c #6E8DA5",
"$ c #708FA6",
"% c #7190A6",
"& c #7190A7",
"* c #7291A8",
"= c #7492A8",
"- c #7593A9",
"; c #7695A9",
": c #7996AB",
"> c #7A97AC",
", c #7C99AD",
"< c #7F9BAD",
"1 c #829EAF",
"2 c #839EB0",
"3 c #87A1B1",
"4 c #88A2B1",
"5 c #88A2B2",
"6 c #8CA5B3",
"7 c #8CA5B4",
"8 c #8EA6B4",
"9 c #90A7B4",
"0 c #94ABB6",
"q c #99AEB8",
"w c #9CB0B9",
"e c #A1B4BB",
"r c #A5B7BC",
"t c #A9BABE",
"y c #E1EAF6",
/* pixels */
"8888888888888888888",
"887           78668",
"73 ooooooooooo t466",
"3 X************ t44",
"3 X*.........** r44",
"3 X*.yyyyyyy.+$ e41",
"2 X+.yyyyyyy.*# w11",
"2 X+.y.....y.+# q11",
", X+.y.#++.y.*# 0,,",
", X#.y.#+#.y.+# 9>>",
": X#.y.....y.#o 6::",
": Xo.yyyyyyy.+o 4;:",
"; Xo.........oo 1;;",
"* XoOOOOooooooo 1==",
"*; oooooooooo  1===",
"$*,           ,*&&&",
"*$&,,,,,,,,,,,&&&&%",
"$*#*&$$$$$$$$$$$$$$",
"..................."
};
