/* XPM */
static char *min_active_down[] = {
/* columns rows colors chars-per-pixel */
"19 19 37 1 ",
"  c #405363",
". c #486A86",
"X c #5E819C",
"o c #6889A2",
"O c #6989A2",
"+ c #6C8DA5",
"@ c #6D8DA5",
"# c #6E8DA5",
"$ c #6F8EA6",
"% c #708FA6",
"& c #7190A6",
"* c #7190A7",
"= c #7291A7",
"- c #7291A8",
"; c #7492A8",
": c #7593A9",
"> c #7795AA",
", c #7A97AC",
"< c #7C99AD",
"1 c #7F9BAD",
"2 c #809CAE",
"3 c #829EAF",
"4 c #839EB0",
"5 c #85A0B0",
"6 c #87A1B1",
"7 c #88A2B1",
"8 c #88A2B2",
"9 c #8AA4B3",
"0 c #8CA5B4",
"q c #8EA6B4",
"w c #90A7B4",
"e c #94ABB6",
"r c #99AEB8",
"t c #9CB0B9",
"y c #A1B4BB",
"u c #A9BABE",
"i c #E1EAF6",
/* pixels */
"qqqqqqqqqqqqqqqqqqq",
"qq000q0000000000000",
"0q0           00099",
"66 ooooooooooo u066",
"6 X------------ u66",
"6 X--$&&-&-&-&- y66",
"4 X$$&$$$$$&$&+ y66",
"4 X+$$$$$$$$$$$ t21",
"4 .$@%++$$++%%+ r1<",
"< +%%+%$+$++++% e1>",
", @%.........O@ w>>",
", .@.iiiiiii.@@ w>>",
"- X+.iiiiiii.+O 6;>",
": Xo.........OO 5:;",
"- XoOOOoooooooo 2:&",
"-- oooooooooo  1-&-",
"--1           <$--$",
"$-$1<<<<<<<<<<-$-$-",
"..................."
};
