/* XPM */
static char *min_active_up[] = {
/* columns rows colors chars-per-pixel */
"19 19 36 1 ",
"  c #435B6E",
". c #486A86",
"X c #63839A",
"o c #69879D",
"O c #6B899D",
"+ c #6B8DA5",
"@ c #6E8EA5",
"# c #708FA6",
"$ c #7190A6",
"% c #7492A8",
"& c #7493A9",
"* c #7593A9",
"= c #7594A9",
"- c #7695A9",
"; c #7795AA",
": c #7896AB",
"> c #7996AB",
", c #7A97AC",
"< c #7C99AD",
"1 c #7E9AAD",
"2 c #8299A8",
"3 c #809CAE",
"4 c #829DAF",
"5 c #829EAF",
"6 c #859FB0",
"7 c #90A4AD",
"8 c #88A2B1",
"9 c #89A3B3",
"0 c #8AA4B3",
"q c #8CA5B4",
"w c #8DA6B4",
"e c #8EA6B4",
"r c #8FA7B4",
"t c #92A9B6",
"y c #A5B7BC",
"u c #E1EAF6",
/* pixels */
"eeeeeeeeeeeeeeeerwr",
"eeqqqeqqqqqqqqqqw99",
";:O           O,q9w",
"&o 7yyyyyyyyy7 O:99",
"; 2ttttttttttt@ &98",
"& tererrrrrree, &81",
": tqeqqrwwrrqe< :18",
", tee99999999q< ;81",
"< t88889888888< ,<<",
"< t1<<<,<<<<<<< ,,,",
"1 t-.........-< ,:;",
"8 t-.uuuuuuu.-< 6;;",
"1 t&.uuuuuuu.&, 5&&",
"8 t@.........%1 5;;",
", 2@@@@@@@@@@@@ 5&;",
"@8 X+++++++++X 51;@",
"%15           51$$$",
"@@5q99999999995$$@$",
"..................."
};
