/* XPM */
static char *titlebar_mid_focused[] = {
/* columns rows colors chars-per-pixel */
"19 19 18 1 ",
"  c #486A86",
". c #708FA6",
"X c #7190A6",
"o c #7492A8",
"O c #7593A9",
"+ c #7695A9",
"@ c #7795AA",
"# c #7996AB",
"$ c #7A97AC",
"% c #7C99AD",
"& c #829EAF",
"* c #839EB0",
"= c #85A0B0",
"- c #87A1B1",
"; c #88A2B2",
": c #8AA4B3",
"> c #8CA5B4",
", c #8EA6B4",
/* pixels */
",,,,>,,,,,>,,,,,,,,",
",,>>>>>>>>>>>>>>,:,",
">,->:::>>>::::>::::",
"----:------:-:---;;",
"----------------;--",
"*-========-=====-*&",
"**********==%=**&*&",
"**&&&&&&=%%====%&&&",
"%%%%%%%%%%%%%%%%%%%",
"$$$$%%+%%%@%%%$$#%%",
"+$$$$++%+@%@$@+$%++",
"O$+O$+++++@@@@@@#++",
"+$OO++++O@O@@@@O#O+",
"OOOOOOOOOOO@OOOOOOO",
"OO.OOXOXXOOXOXOOOoO",
".OX.OXXO.O.OXO..OXX",
".XXXXXXXXXXXXXXXXXX",
"...................",
"                   "
};
