/* XPM */
static char * duneleft_xpm[] = {
"18 28 6 1",
" 	c None",
".	c #000000",
"+	c #7D7D99",
"@	c #FFFFFF",
"#	c #303050",
"$	c #B2B2C6",
"..                ",
"..                ",
"....              ",
"....              ",
"..++..            ",
"..++..            ",
"..@@++..          ",
"..@@++..          ",
"..@@@@++..        ",
"..@@@@++..        ",
"..@@@@@@++..      ",
"..@@@@@@++..      ",
"..@@@@@@@@++..    ",
"..@@@@@@@@++..    ",
"..@@@@@@@@@@++..  ",
"..@@@@@@@@@@++..  ",
"..@@@@@@@@@@@@++..",
"..@@@@@@@@@@@@++..",
"......##@@@@......",
"......##@@@@......",
"      ..$$@@##    ",
"      ..$$@@##    ",
"        ##@@$$..  ",
"        ##@@$$..  ",
"        ..@@@@..  ",
"        ..@@@@..  ",
"        ........  ",
"        ........  "};
